<svg width="160" height="30" viewBox="0 0 160 30" fill="none" xmlns="http://www.w3.org/2000/svg">
<path fill-rule="evenodd" clip-rule="evenodd" d="M78.3435 27.8424C81.003 29.3033 84.3962 29.9099 87.6261 29.9099V29.913C90.856 29.8718 94.2493 29.2652 96.8254 27.8456V17.9561H90.2408V24.6825C89.4237 25.0064 88.5265 25.1271 87.5844 25.1271C86.6424 25.1271 85.742 25.0064 84.9666 24.6825V5.2274C85.7837 4.90347 86.6456 4.78278 87.5844 4.78278C88.5233 4.78278 89.4653 4.90347 90.2408 5.2274V11.957H96.8254V2.06746C94.2108 0.606582 90.8976 0 87.6261 0C84.3546 0 80.9613 0.647867 78.3435 2.06746V27.8424ZM99.6868 27.6804C102.346 29.1794 105.698 29.9099 109.175 29.9099C112.609 29.8686 116.003 29.1794 118.579 27.6804V2.18814C115.961 0.689153 112.69 0 109.175 0C105.66 0 102.305 0.730438 99.6868 2.18814V27.6804ZM109.136 4.82407C110.28 4.82407 111.222 4.98604 111.997 5.30997V24.5618C111.18 24.927 110.242 25.089 109.136 25.089C108.031 25.089 107.089 24.927 106.313 24.5618V5.30997C107.092 4.98604 107.992 4.82407 109.136 4.82407ZM130.069 18.966H128.31V29.5446H121.645V0.365219H130.069C134.078 0.365219 137.103 1.17505 139.474 2.83601V16.4952C137.144 18.118 134.075 18.966 130.069 18.966ZM132.851 5.38937C132.239 4.94475 131.418 4.7415 130.028 4.7415H128.227V14.5897H130.028C131.377 14.5897 132.194 14.3865 132.851 13.9831V5.38937ZM153.415 18.966V29.5446H160V2.14685C157.587 0.730439 154.236 0 150.964 0C147.693 0 144.299 0.727263 141.887 2.14685V29.5446H148.51V18.966H153.415ZM150.961 4.57953C151.861 4.57953 152.72 4.7415 153.415 5.06543H153.412V14.3452H148.506V5.06543C149.202 4.7415 150.061 4.57953 150.961 4.57953ZM27.6842 22.1389V5.24013H30.8364V22.1389H27.6842ZM61.4543 18.3865V21.6295V21.6338L70.4868 18.3185H70.5082V14.9863H70.4868L61.4543 11.6541V14.8972L66.0884 16.6418L61.4543 18.3865ZM52.2634 23.9642L57.5741 7.06542H60.7263L55.4156 23.9642H52.2634ZM9.06247 11.7984V15.0373L4.42416 16.7862L9.06247 18.5435V21.7908L0.0171313 18.4586H0V15.1307H0.0171313L9.06247 11.7984ZM22.3521 11.3527C23.2515 12.329 23.7226 13.6195 23.6669 14.9396V22.1389H20.5147V15.6018C20.5533 14.8717 20.3177 14.1586 19.8552 13.5898C19.4183 13.0846 18.7716 12.8045 18.0992 12.8342C16.1248 12.8342 15.1355 14.1925 15.1355 16.905V22.1389H11.9833V10.3212H15.1355V11.3867C16.1377 10.4231 17.4953 9.90947 18.8915 9.96889C20.1935 9.91371 21.4527 10.4188 22.3521 11.3527ZM48.6615 22.1389H46.0318L43.4536 15.1773L40.8496 22.1389H38.2199L33.8001 10.3H37.1706L39.6547 17.3804L42.2158 10.3H44.6784L47.2396 17.4017L49.7236 10.3H53.0942L48.67 22.1389H48.6615Z" fill="#F7DD43"/>
</svg>
